<svg version="1.1" id="Layer_1" xmlns="http://www.w3.org/2000/svg" xmlns:xlink="http://www.w3.org/1999/xlink"
    viewBox="0 0 512.003 512.003" xml:space="preserve" fill="#000000">
    <g id="SVGRepo_bgCarrier" stroke-width="0"></g>
    <g id="SVGRepo_tracerCarrier" stroke-linecap="round" stroke-linejoin="round"></g>
    <g id="SVGRepo_iconCarrier">
        <g>
            <rect y="240.327" style="fill:#0088FF;" width="60.231" height="31.347"></rect>
            <rect x="240.327" style="fill:#0088FF;" width="31.347" height="60.228"></rect>
            <rect x="451.772" y="240.327" style="fill:#0088FF;" width="60.231" height="31.347"></rect>
        </g>
        <path style="fill:#67BFFF;"
            d="M479.608,256c0,39.288-10.334,77.929-29.895,111.762c-17.471,30.208-41.911,56.059-71.032,75.201 c-2.497,1.651-5.026,3.239-7.596,4.786c-34.659,20.846-74.449,31.859-115.085,31.859c-0.24,0-0.47,0-0.711-0.01 c-41.89-0.125-82.683-11.912-118.021-34.095c-2.476-1.557-4.932-3.166-7.346-4.817c-28.233-19.31-51.869-45.025-68.702-74.794 C42.36,332.528,32.392,294.536,32.392,256c0-123.058,99.924-223.222,222.898-223.608H256 C379.298,32.392,479.608,132.702,479.608,256z">
        </path>
        <g>
            <path style="fill:#0088FF;"
                d="M479.608,256c0,39.288-10.334,77.929-29.895,111.762c-17.471,30.208-41.911,56.059-71.032,75.201 c-2.497,1.651-5.026,3.239-7.596,4.786c-34.659,20.846-74.449,31.859-115.085,31.859c-0.24,0-0.47,0-0.711-0.01V32.392H256 C379.298,32.392,479.608,132.702,479.608,256z">
            </path>
            <rect x="255.289" style="fill:#0088FF;" width="16.384" height="60.228"></rect>
            <rect x="240.327" y="451.772" style="fill:#0088FF;" width="31.347" height="60.231"></rect>
        </g>
        <path style="fill:#FD7052;"
            d="M378.681,396.831v46.132c-2.497,1.651-5.026,3.239-7.596,4.786 c-34.659,20.846-74.449,31.859-115.085,31.859c-0.24,0-0.47,0-0.711-0.01c-41.89-0.125-82.683-11.912-118.021-34.095 c-2.476-1.557-4.932-3.166-7.346-4.817v-43.854c0-56.153,45.683-101.836,101.836-101.836h45.087 C332.999,294.996,378.681,340.679,378.681,396.831z">
        </path>
        <path style="fill:#FF4F18;"
            d="M378.681,396.831v46.132c-2.497,1.651-5.026,3.239-7.596,4.786 c-34.659,20.846-74.449,31.859-115.085,31.859c-0.24,0-0.47,0-0.711-0.01V294.996h21.556 C332.999,294.996,378.681,340.679,378.681,396.831z">
        </path>
        <path style="fill:#FFDBA8;"
            d="M353.399,199.27c0,53.71-43.689,97.399-97.399,97.399c-0.238,0-0.476,0-0.715-0.008 c-53.386-0.382-96.684-43.919-96.684-97.391s43.297-97.007,96.684-97.391c0.238-0.008,0.476-0.008,0.715-0.008 C309.71,101.871,353.399,145.561,353.399,199.27z">
        </path>
        <path style="fill:#FFC473;"
            d="M256,296.669c-0.238,0-0.476,0-0.715-0.008v-194.78c0.238-0.008,0.476-0.008,0.715-0.008 c53.71,0,97.399,43.689,97.399,97.399S309.71,296.669,256,296.669z">
        </path>
        <rect x="213.671" y="156.735" style="fill:#57555C;" width="29.254" height="29.254"></rect>
        <rect x="267.306" y="156.735" style="fill:#3C3A41;" width="29.254" height="29.254"></rect>
        <path style="fill:#FD7052;"
            d="M293.385,214.514v0.49c0,20.879-16.982,37.862-37.862,37.862h-0.451 c-20.879,0-37.862-16.982-37.862-37.862h28.799c0,5.001,4.06,9.062,9.062,9.062h0.451c5.001,0,9.062-4.06,9.062-9.062v-0.49H293.385 z">
        </path>
        <path style="fill:#FF4F18;"
            d="M293.385,214.514v0.49c0,20.879-16.982,37.862-37.862,37.862h-0.231v-28.799h0.231 c5.001,0,9.062-4.06,9.062-9.062v-0.49H293.385z">
        </path>
    </g>
</svg>